<?xml version="1.0" encoding="utf-8"?>
<!-- Generator: Adobe Illustrator 18.1.1, SVG Export Plug-In . SVG Version: 6.00 Build 0)  -->
<svg version="1.1" id="Layer_1" xmlns="http://www.w3.org/2000/svg" xmlns:xlink="http://www.w3.org/1999/xlink" x="0px" y="0px"
	 viewBox="0 0 353.5 322.4" enable-background="new 0 0 353.5 322.4" xml:space="preserve">
<path fill="none" stroke="#000000" stroke-width="20" stroke-miterlimit="10" d="M302.3,310.9H51.6c-6.6,0-12-5.4-12-12V139.5
	c0-6.6,5.4-12,12-12h250.7c6.6,0,12,5.4,12,12v159.5C314.3,305.5,308.9,310.9,302.3,310.9z"/>
<path fill="none" stroke="#000000" stroke-width="20" stroke-miterlimit="10" d="M330.5,126.7H23.5c-6.6,0-12-5.4-12-12V94.5
	c0-6.6,5.4-12,12-12h306.9c6.6,0,12,5.4,12,12v20.2C342.5,121.3,337.1,126.7,330.5,126.7z"/>
<g>
	<g>
		<path d="M166,127.5c0,20.6,0,41.2,0,61.8c0,32.9,0,65.8,0,98.7c0,7.6,0,15.3,0,22.9c0,13.5,21,13.5,21,0c0-20.6,0-41.2,0-61.8
			c0-32.9,0-65.8,0-98.7c0-7.6,0-15.3,0-22.9C187,114,166,113.9,166,127.5L166,127.5z"/>
	</g>
</g>
<path fill="none" stroke="#000000" stroke-width="20" stroke-miterlimit="10" d="M180.5,69c-5,14.7-44.7,18-72.6,5.5
	c-6.8-3.1-29.2-13.1-29.4-29.4c-0.2-14,15.8-26.1,29.4-29.4C142.9,7.1,186.6,50.9,180.5,69z"/>
<path fill="none" stroke="#000000" stroke-width="20" stroke-miterlimit="10" d="M182,66c5,14.7,44.7,18,72.6,5.5
	c6.8-3.1,29.2-13.1,29.4-29.4c0.2-14-15.8-26.1-29.4-29.4C219.6,4.1,175.9,47.9,182,66z"/>
</svg>
