<?xml version="1.0" encoding="utf-8"?>
<!-- Generator: Adobe Illustrator 18.1.1, SVG Export Plug-In . SVG Version: 6.00 Build 0)  -->
<svg version="1.1" id="Layer_1" xmlns="http://www.w3.org/2000/svg" xmlns:xlink="http://www.w3.org/1999/xlink" x="0px" y="0px"
	 viewBox="0 0 325.9 399.6" enable-background="new 0 0 325.9 399.6" xml:space="preserve">
<path d="M212.8,309.6"/>
<path fill="none" stroke="#000000" stroke-width="20" stroke-miterlimit="10" d="M302.9,341.6H52.2c-6.6,0-12-5.4-12-12V145
	c0-6.6,5.4-12,12-12h250.7c6.6,0,12,5.4,12,12v184.5C314.9,336.2,309.5,341.6,302.9,341.6z"/>
<path stroke="#000000" stroke-width="8" stroke-miterlimit="10" d="M181.6,45.1h-8.4c-2.5,0-4.5,2-4.5,4.5v59.4c0,2.5,2,4.5,4.5,4.5
	h8.4c2.5,0,4.5-2,4.5-4.5V49.6C186.1,47.1,184.1,45.1,181.6,45.1z"/>
<path stroke="#000000" stroke-width="8" stroke-miterlimit="10" d="M283.4,56.3h-8.4c-2.5,0-4.5,2-4.5,4.5v48.3c0,2.5,2,4.5,4.5,4.5
	h8.4c2.5,0,4.5-2,4.5-4.5V60.8C287.9,58.3,285.9,56.3,283.4,56.3z"/>
<path stroke="#000000" stroke-width="8" stroke-miterlimit="10" d="M82.9,56.3h-8.4c-2.5,0-4.5,2-4.5,4.5v48.3c0,2.5,2,4.5,4.5,4.5
	h8.4c2.5,0,4.5-2,4.5-4.5V60.8C87.4,58.3,85.4,56.3,82.9,56.3z"/>
<path stroke="#000000" stroke-width="8" stroke-miterlimit="10" d="M73,41.4c-2.8-2-3.1-5.6-3.1-6.9c0-2.4,0.8-3.6,3.1-8.1
	c4.2-8.2,4.4-10,5.6-10c1.8,0,1.6,3.8,6.2,11.8c1.4,2.5,2.4,3.9,2.5,6.2c0,0.5,0,4.3-2.8,6.5c-1.9,1.5-4,1.5-5.9,1.6
	C76.9,42.6,74.8,42.7,73,41.4z"/>
<path stroke="#000000" stroke-width="8" stroke-miterlimit="10" d="M171.7,31.3c-2.8-2-3.1-5.6-3.1-6.9c0-2.4,0.8-3.6,3.1-8.1
	c4.2-8.2,4.4-10,5.6-10c1.8,0,1.6,3.8,6.2,11.8c1.4,2.5,2.4,3.9,2.5,6.2c0,0.5,0,4.3-2.8,6.5c-1.9,1.5-4,1.5-5.9,1.6
	C175.5,32.6,173.5,32.6,171.7,31.3z"/>
<path stroke="#000000" stroke-width="8" stroke-miterlimit="10" d="M274,42.3c-2.8-2-3.1-5.6-3.1-6.9c0-2.4,0.8-3.6,3.1-8.1
	c4.2-8.2,4.4-10,5.6-10c1.8,0,1.6,3.8,6.2,11.8c1.4,2.5,2.4,3.9,2.5,6.2c0,0.5,0,4.3-2.8,6.5c-1.9,1.5-4,1.5-5.9,1.6
	C277.8,43.6,275.8,43.6,274,42.3z"/>
<path fill="#FFFFFF" stroke="#000000" stroke-width="20" stroke-miterlimit="10" d="M41.2,181.1c20.4-16.2,41.1-11.5,54-6.1
	c10.4,4.3,11.6,8,20.9,10.4c22.2,5.6,30.1-12.1,53.6-15.2c28-3.7,31.3,19.5,59,14.6c20.3-3.6,26.6-13.9,46.3-16.4
	c18.8-2.5,31.8,4.1,42.7,12.8"/>
<path fill="#FFFFFF" stroke="#000000" stroke-width="20" stroke-miterlimit="10" d="M159.8,389.1H23.9c-6.6,0-12-5.4-12-12V267.7
	c0-6.6,5.4-12,12-12h135.9c6.6,0,12,5.4,12,12v109.3C171.8,383.7,166.4,389.1,159.8,389.1z"/>
<path fill="#FFFFFF" stroke="#000000" stroke-width="20" stroke-miterlimit="10" d="M42.8,224.1c20-16.2,40.2-11.5,52.9-6.1
	c10.2,4.3,11.4,8,20.5,10.4c21.8,5.6,29.5-12.1,52.5-15.2c27.5-3.7,30.7,19.5,57.8,14.6c19.8-3.6,26.1-13.9,45.4-16.4
	c18.4-2.5,31.1,4.1,41.8,12.8"/>
<line fill="none" stroke="#000000" stroke-width="21" stroke-miterlimit="10" x1="18" y1="272.5" x2="166" y2="272.5"/>
<rect x="37.4" y="295.7" fill="none" width="109.6" height="79.5"/>
<text transform="matrix(1 0 0 1 37.4364 362.7169)" font-family="'ArialRoundedMTBold'" font-size="92">23</text>
</svg>
