<?xml version="1.0" encoding="utf-8"?>
<!-- Generator: Adobe Illustrator 18.1.1, SVG Export Plug-In . SVG Version: 6.00 Build 0)  -->
<svg version="1.1" id="Layer_1" xmlns="http://www.w3.org/2000/svg" xmlns:xlink="http://www.w3.org/1999/xlink" x="0px" y="0px"
	 viewBox="0 0 230.7 294.8" enable-background="new 0 0 230.7 294.8" xml:space="preserve">
<path d="M229.5,225.4c-6.3-20.1-11.9-38.2-17.3-55.5c-2.5-8.2-5.1-16.6-7.6-24.8c-3.2-10.3-6.4-21-9.6-31.3l-0.3-1.1
	c7.6-7.5,12.1-18.1,11.5-29.7c-1-20.6-18.3-37.1-39-37.2c-21.6-0.1-39.3,17.5-39.3,39.1c0,10,3.8,19.2,10,26.2l-0.8,2.9
	c-4.6,16-9.2,31.8-13.8,47.7c-6.1,21.2-12.5,43.1-18.7,64.8l-0.2,0.6c-1.6,5.4,3.2,10.6,8.7,9.6l0.6-0.1c17.6-3.3,35.6-5.1,53.4-5.2
	c0.8,0,1.5,0,2.3,0c17.1,0,34.3,1.5,51.1,4.4l3,0.5c4.5,0.8,8.3-3.5,6.9-7.9L229.5,225.4z"/>
<g>
	<g>
		<path d="M137.8,180.9c0,26.6,0,53.1,0,79.7c0,3.8,0,7.7,0,11.5c0,13.5,21,13.5,21,0c0-26.6,0-53.1,0-79.7c0-3.8,0-7.7,0-11.5
			C158.8,167.4,137.8,167.4,137.8,180.9L137.8,180.9z"/>
	</g>
</g>
<g>
	<g>
		<path d="M175.4,180.9c0,26.6,0,53.1,0,79.7c0,3.8,0,7.7,0,11.5c0,13.5,21,13.5,21,0c0-26.6,0-53.1,0-79.7c0-3.8,0-7.7,0-11.5
			C196.4,167.4,175.4,167.4,175.4,180.9L175.4,180.9z"/>
	</g>
</g>
<path fill="#FFFFFF" d="M197.3,172c-4-12.9-7.9-25.8-11.9-38.8l-6.6-26.2c7.9-4.2,13.3-12.6,13.3-22.2c0-13.9-11.2-25.1-25.1-25.1
	c-13.9,0-25.1,11.2-25.1,25.1c0,9.1,4.8,17,12,21.4l-12,45.2c-6.3,22-12.7,43.9-19,65.9c12.2-2.3,27.1-4.1,44.1-4.2
	c17-0.1,31.9,1.6,44.1,3.7C206.5,201.9,201.9,186.9,197.3,172z"/>
<path d="M159,225c-7.9-25.1-14.9-47.8-21.6-69.3c-3.2-10.3-6.4-20.7-9.5-31.1c-4-12.9-8-26.3-12.1-39.2l-0.4-1.4
	c9.5-9.4,15.1-22.7,14.4-37.2C128.6,21,106.9,0.5,81.1,0.4c-27-0.1-49.1,21.9-49.1,48.9c0,12.6,4.8,24,12.6,32.7l-1,3.6
	c-5.8,19.9-11.5,39.8-17.3,59.6c-7.7,26.5-15.6,53.9-23.4,81.1l-0.2,0.8c-2,6.8,3.9,13.3,10.9,12l0.8-0.1c22-4.2,44.5-6.4,66.7-6.5
	c1,0,1.9,0,2.9,0c21.4,0,42.9,1.8,63.8,5.5l3.8,0.7c5.6,1,10.3-4.4,8.6-9.8L159,225z"/>
<g>
	<g>
		<path d="M47,169.4c0,33.2,0,66.4,0,99.6c0,4.8,0,9.6,0,14.4c0,13.5,21,13.5,21,0c0-33.2,0-66.4,0-99.6c0-4.8,0-9.6,0-14.4
			C68,155.9,47,155.9,47,169.4L47,169.4z"/>
	</g>
</g>
<g>
	<g>
		<path d="M94,169.4c0,33.2,0,66.4,0,99.6c0,4.8,0,9.6,0,14.4c0,13.5,21,13.5,21,0c0-33.2,0-66.4,0-99.6c0-4.8,0-9.6,0-14.4
			C115,155.9,94,155.9,94,169.4L94,169.4z"/>
	</g>
</g>
<path fill="#FFFFFF" d="M118.8,158.3c-5-16.1-9.9-32.3-14.8-48.5l-8.2-32.7c9.9-5.3,16.7-15.7,16.7-27.7c0-17.3-14.1-31.4-31.4-31.4
	c-17.3,0-31.4,14.1-31.4,31.4c0,11.3,6,21.3,15,26.8l-15,56.5c-7.9,27.5-15.8,54.9-23.8,82.4c15.3-2.9,33.9-5.1,55.2-5.3
	c21.2-0.2,39.9,1.9,55.2,4.6C130.3,195.7,124.5,176.9,118.8,158.3z"/>
</svg>
