<?xml version="1.0" encoding="utf-8"?>
<!-- Generator: Adobe Illustrator 18.1.1, SVG Export Plug-In . SVG Version: 6.00 Build 0)  -->
<svg version="1.1" id="Layer_1" xmlns="http://www.w3.org/2000/svg" xmlns:xlink="http://www.w3.org/1999/xlink" x="0px" y="0px"
	 viewBox="0 0 230.6 230.3" enable-background="new 0 0 230.6 230.3" xml:space="preserve">
<path fill="none" stroke="#000000" stroke-width="20" stroke-miterlimit="10" d="M208.5,220.3h-186c-6.6,0-12-5.4-12-12v-186
	c0-6.6,5.4-12,12-12h186c6.6,0,12,5.4,12,12v186C220.5,214.9,215.1,220.3,208.5,220.3z"/>
<g>
	<g>
		<path d="M105,48.4c0,39.2,0,78.4,0,117.5c0,5.5,0,11,0,16.5c0,13.5,21,13.5,21,0c0-39.2,0-78.4,0-117.5c0-5.5,0-11,0-16.5
			C126,34.9,105,34.9,105,48.4L105,48.4z"/>
	</g>
</g>
<g>
	<g>
		<path d="M48.5,125.8c39.2,0,78.4,0,117.5,0c5.5,0,11,0,16.5,0c13.5,0,13.5-21,0-21c-39.2,0-78.4,0-117.5,0c-5.5,0-11,0-16.5,0
			C35,104.8,35,125.8,48.5,125.8L48.5,125.8z"/>
	</g>
</g>
</svg>
